<svg width="55" height="40" viewBox="0 0 55 40" fill="none" xmlns="http://www.w3.org/2000/svg">
<rect x="33.3335" y="30.1963" width="14.902" height="9.80392" rx="4.90196" fill="#4E69FE"/>
<path fill-rule="evenodd" clip-rule="evenodd" d="M0 13.9216C0 6.2329 6.2329 0 13.9216 0H40.7843C48.473 0 54.7059 6.2329 54.7059 13.9216C54.7059 21.6102 48.473 27.8431 40.7843 27.8431H13.9216C6.23289 27.8431 0 21.6102 0 13.9216ZM12.7451 11.7646C12.7451 10.2486 13.9741 9.01953 15.4902 9.01953C17.0062 9.01953 18.2353 10.2486 18.2353 11.7646V16.0784C18.2353 17.5944 17.0062 18.8235 15.4902 18.8235C13.9741 18.8235 12.7451 17.5944 12.7451 16.0784V11.7646ZM23.9214 9.01953C22.4053 9.01953 21.1763 10.2486 21.1763 11.7646V16.0784C21.1763 17.5944 22.4053 18.8235 23.9214 18.8235C25.4375 18.8235 26.6665 17.5944 26.6665 16.0784V11.7646C26.6665 10.2486 25.4375 9.01953 23.9214 9.01953Z" fill="#4E69FE"/>
</svg>
