<svg width="500" height="500" viewBox="0 0 500 500" fill="none" xmlns="http://www.w3.org/2000/svg">
<rect width="500" height="500" rx="100" fill="#4E69FE"/>
<rect x="283.889" y="329.11" width="84.4444" height="55.5556" rx="27.7778" fill="white"/>
<path fill-rule="evenodd" clip-rule="evenodd" d="M95 236.889C95 193.32 130.32 158 173.889 158H326.111C369.68 158 405 193.32 405 236.889C405 280.458 369.68 315.778 326.111 315.778H173.889C130.32 315.778 95 280.458 95 236.889ZM167.222 224.667C167.222 216.076 174.186 209.111 182.778 209.111C191.369 209.111 198.333 216.076 198.333 224.667V249.111C198.333 257.702 191.369 264.667 182.778 264.667C174.186 264.667 167.222 257.702 167.222 249.111V224.667ZM230.555 209.111C221.964 209.111 215 216.076 215 224.667V249.111C215 257.702 221.964 264.667 230.555 264.667C239.147 264.667 246.111 257.702 246.111 249.111V224.667C246.111 216.076 239.147 209.111 230.555 209.111Z" fill="white"/>
</svg>
