<svg width="39" height="30" viewBox="0 0 39 30" fill="none" xmlns="http://www.w3.org/2000/svg">
<rect x="23.5806" y="22.0732" width="10.5419" height="6.93544" rx="3.46772" fill="#4E69FE"/>
<path fill-rule="evenodd" clip-rule="evenodd" d="M0 10.5607C0 5.12165 4.40925 0.712402 9.84832 0.712402H28.8514C34.2905 0.712402 38.6997 5.12165 38.6997 10.5607C38.6997 15.9998 34.2905 20.409 28.8514 20.409H9.84833C4.40925 20.409 0 15.9998 0 10.5607ZM9.01596 9.03463C9.01596 7.96214 9.88538 7.09271 10.9579 7.09271C12.0304 7.09271 12.8998 7.96214 12.8998 9.03463V12.0862C12.8998 13.1587 12.0304 14.0281 10.9579 14.0281C9.88538 14.0281 9.01596 13.1587 9.01596 12.0862V9.03463ZM16.9224 7.09271C15.85 7.09271 14.9805 7.96214 14.9805 9.03463V12.0862C14.9805 13.1587 15.85 14.0281 16.9224 14.0281C17.9949 14.0281 18.8644 13.1587 18.8644 12.0862V9.03463C18.8644 7.96214 17.9949 7.09271 16.9224 7.09271Z" fill="#4E69FE"/>
</svg>
