<svg width="90" height="34" viewBox="0 0 90 34" fill="none" xmlns="http://www.w3.org/2000/svg">
<path d="M1.9857 25.5132C1.48881 25.5132 1.03015 25.3221 0.609707 24.9398C0.227487 24.5958 0.036377 24.1754 0.036377 23.6785V5.15997C0.036377 4.12797 0.380375 3.34442 1.06837 2.80932C1.79459 2.27421 2.55903 2.00666 3.36169 2.00666H8.98032C10.2799 2.00666 11.4839 2.29332 12.5923 2.86665C13.739 3.40176 14.6563 4.18531 15.3443 5.2173C16.0323 6.21107 16.3763 7.41506 16.3763 8.82928C16.3763 10.167 15.9749 11.4475 15.1723 12.6706C14.4078 13.8555 13.4141 14.6581 12.191 15.0786C12.7261 15.3079 13.223 15.6901 13.6816 16.2252C14.1785 16.7221 14.6181 17.391 15.0003 18.2319L17.0643 22.8759C17.1789 23.1052 17.2363 23.3536 17.2363 23.6212C17.2363 24.3092 17.0069 24.8061 16.5483 25.1118C16.1278 25.4176 15.6883 25.5705 15.2296 25.5705C14.4652 25.5705 13.9301 25.2074 13.6243 24.4812L11.2736 18.9772C10.7768 17.8688 10.1461 17.1043 9.38165 16.6839C8.61721 16.2635 7.77633 16.0532 6.859 16.0532H5.42568C4.4319 16.0532 3.93502 16.6266 3.93502 17.7732V23.6785C3.93502 24.1754 3.74391 24.5958 3.36169 24.9398C2.97947 25.3221 2.52081 25.5132 1.9857 25.5132ZM5.19634 12.6133H8.40699C9.36254 12.6133 10.2799 12.3075 11.159 11.6959C12.0763 11.0462 12.535 10.1288 12.535 8.94394C12.535 7.79728 12.1145 6.93729 11.2736 6.36396C10.471 5.79063 9.59187 5.50396 8.63632 5.50396H5.36834C4.41279 5.50396 3.93502 5.98174 3.93502 6.93729V11.2946C3.93502 12.1737 4.35546 12.6133 5.19634 12.6133Z" fill="#303030"/>
<path d="M26.8225 25.5132C23.9559 25.5132 21.7199 24.6914 20.1146 23.0479C18.5092 21.4043 17.7066 19.1874 17.7066 16.3972C17.7066 13.951 18.5092 11.9444 20.1146 10.3773C21.7581 8.81017 23.8603 8.02662 26.4212 8.02662C28.9056 8.02662 30.8932 8.75283 32.3838 10.2053C33.8745 11.6195 34.6198 13.3777 34.6198 15.4799C34.6198 16.3208 34.3905 16.9514 33.9318 17.3719C33.5114 17.7923 32.9571 18.0026 32.2691 18.0026H22.2932C21.911 18.0026 21.7772 18.2128 21.8919 18.6332C22.1977 19.7034 22.8092 20.5443 23.7265 21.1559C24.6821 21.7292 25.7523 22.0159 26.9372 22.0159C27.8163 22.0159 28.6572 21.9012 29.4598 21.6719C30.3007 21.4425 31.0269 21.0985 31.6385 20.6399C31.8296 20.487 32.078 20.4105 32.3838 20.4105C32.8043 20.4105 33.1865 20.6016 33.5305 20.9839C33.8745 21.3279 34.0465 21.7483 34.0465 22.2452C34.0465 22.4745 34.0083 22.7039 33.9318 22.9332C33.8554 23.1625 33.6834 23.3919 33.4158 23.6212C32.422 24.3474 31.3518 24.8443 30.2052 25.1118C29.0967 25.3794 27.9692 25.5132 26.8225 25.5132ZM30.1478 15.0212C30.3772 15.0212 30.4918 14.9066 30.4918 14.6772C30.4918 13.7981 30.0905 13.0337 29.2878 12.3839C28.5234 11.7341 27.5678 11.4093 26.4212 11.4093C25.4274 11.4093 24.4719 11.6768 23.5545 12.2119C22.6754 12.747 22.1403 13.4541 21.9492 14.3332C21.9492 14.3332 21.9492 14.3524 21.9492 14.3906C21.911 14.5435 21.8919 14.6772 21.8919 14.7919C21.9301 14.9066 22.1021 14.9639 22.4079 14.9639L30.1478 15.0212Z" fill="#303030"/>
<path d="M46.2848 25.5132C45.2146 25.5132 44.2591 25.3221 43.4182 24.9398C42.5773 24.5958 41.8511 24.1181 41.2395 23.5065V31.4758C41.2395 32.0491 41.0293 32.4887 40.6089 32.7945C40.2266 33.1002 39.7871 33.2531 39.2902 33.2531C38.7933 33.2531 38.3346 33.1002 37.9142 32.7945C37.532 32.4887 37.3409 32.0491 37.3409 31.4758V10.2626C37.3409 9.61283 37.532 9.13505 37.9142 8.82928C38.3346 8.48528 38.7933 8.31328 39.2902 8.31328C39.7489 8.31328 40.1693 8.46617 40.5515 8.77194C40.9337 9.0395 41.1631 9.44083 41.2395 9.97594C41.8511 9.40261 42.5773 8.94394 43.4182 8.59994C44.2591 8.21772 45.2146 8.02662 46.2848 8.02662C47.9666 8.02662 49.4381 8.40884 50.6995 9.17328C51.999 9.89949 53.0119 10.9124 53.7381 12.2119C54.4643 13.5115 54.8274 14.983 54.8274 16.6266C54.8274 18.3083 54.4643 19.8372 53.7381 21.2132C53.0119 22.551 51.999 23.6021 50.6995 24.3665C49.4381 25.1309 47.9666 25.5132 46.2848 25.5132ZM45.9408 21.9585C47.4315 21.9585 48.6355 21.4808 49.5528 20.5252C50.4701 19.5314 50.9288 18.2319 50.9288 16.6266C50.9288 15.0977 50.4701 13.8746 49.5528 12.9572C48.6355 12.0399 47.4315 11.5813 45.9408 11.5813C44.4884 11.5813 43.3417 12.0399 42.5008 12.9572C41.66 13.8746 41.2395 15.0977 41.2395 16.6266C41.2395 18.2319 41.66 19.5314 42.5008 20.5252C43.3417 21.4808 44.4884 21.9585 45.9408 21.9585Z" fill="#303030"/>
<path d="M59.5135 25.5132C59.0166 25.5132 58.558 25.3603 58.1375 25.0545C57.7553 24.7487 57.5642 24.3092 57.5642 23.7358V1.94932C57.5642 1.29955 57.7553 0.821774 58.1375 0.515998C58.558 0.172 59.0166 0 59.5135 0C60.0104 0 60.4499 0.172 60.8322 0.515998C61.2526 0.821774 61.4628 1.29955 61.4628 1.94932V23.7358C61.4628 24.3092 61.2526 24.7487 60.8322 25.0545C60.4499 25.3603 60.0104 25.5132 59.5135 25.5132Z" fill="#303030"/>
<path d="M72.8658 25.5132C71.2223 25.5132 69.7507 25.1309 68.4512 24.3665C67.1516 23.6021 66.1387 22.551 65.4125 21.2132C64.6863 19.8372 64.3232 18.3083 64.3232 16.6266C64.3232 14.983 64.6863 13.5115 65.4125 12.2119C66.1387 10.9124 67.1516 9.89949 68.4512 9.17328C69.7507 8.40884 71.2223 8.02662 72.8658 8.02662C73.936 8.02662 74.8916 8.21772 75.7325 8.59994C76.5733 8.94394 77.2996 9.40261 77.9111 9.97594C77.9876 9.44083 78.2169 9.0395 78.5991 8.77194C78.9813 8.46617 79.4018 8.31328 79.8604 8.31328C80.3573 8.31328 80.7969 8.48528 81.1791 8.82928C81.5995 9.13505 81.8098 9.61283 81.8098 10.2626V23.7358C81.8098 24.3092 81.5995 24.7487 81.1791 25.0545C80.7969 25.3603 80.3573 25.5132 79.8604 25.5132C79.3635 25.5132 78.9049 25.3603 78.4844 25.0545C78.1022 24.7487 77.9111 24.3092 77.9111 23.7358V23.5065C77.2996 24.1181 76.5733 24.5958 75.7325 24.9398C74.8916 25.3221 73.936 25.5132 72.8658 25.5132ZM73.2098 21.9585C74.6622 21.9585 75.8089 21.4808 76.6498 20.5252C77.4907 19.5314 77.9111 18.2319 77.9111 16.6266C77.9111 15.0977 77.4907 13.8746 76.6498 12.9572C75.8089 12.0399 74.6622 11.5813 73.2098 11.5813C71.7192 11.5813 70.5152 12.0399 69.5978 12.9572C68.6805 13.8746 68.2218 15.0977 68.2218 16.6266C68.2218 18.2319 68.6805 19.5314 69.5978 20.5252C70.5152 21.4808 71.7192 21.9585 73.2098 21.9585Z" fill="#303030"/>
<path d="M87.4199 25.5132C86.923 25.5132 86.4643 25.3603 86.0439 25.0545C85.6617 24.7487 85.4706 24.3092 85.4706 23.7358V9.97594C85.4706 9.32616 85.6617 8.84839 86.0439 8.54261C86.4643 8.19861 86.923 8.02662 87.4199 8.02662C87.9168 8.02662 88.3563 8.19861 88.7385 8.54261C89.159 8.84839 89.3692 9.32616 89.3692 9.97594V23.7358C89.3692 24.3092 89.159 24.7487 88.7385 25.0545C88.3563 25.3603 87.9168 25.5132 87.4199 25.5132ZM87.4772 4.8733C86.751 4.8733 86.1203 4.64397 85.5852 4.18531C85.0883 3.68842 84.8399 3.09598 84.8399 2.40798C84.8399 1.75821 85.0883 1.20399 85.5852 0.745329C86.1203 0.248443 86.751 0 87.4772 0C88.1652 0 88.7576 0.248443 89.2545 0.745329C89.7514 1.20399 89.9999 1.75821 89.9999 2.40798C89.9999 3.09598 89.7514 3.68842 89.2545 4.18531C88.7576 4.64397 88.1652 4.8733 87.4772 4.8733Z" fill="#303030"/>
</svg>
